<svg width="219" height="68" viewBox="0 0 219 68" fill="none" xmlns="http://www.w3.org/2000/svg">
<rect width="219" height="68" fill="#101010"/>
<path d="M60.5284 48V18.9091H72.1761C74.3163 18.9091 76.1013 19.2263 77.5312 19.8608C78.9612 20.4953 80.036 21.3759 80.7557 22.5028C81.4754 23.6203 81.8352 24.9081 81.8352 26.3665C81.8352 27.5028 81.608 28.5019 81.1534 29.3636C80.6989 30.2159 80.0739 30.9167 79.2784 31.4659C78.4924 32.0057 77.5928 32.3892 76.5795 32.6165V32.9006C77.6875 32.9479 78.7244 33.2604 79.6903 33.8381C80.6657 34.4157 81.4564 35.2254 82.0625 36.267C82.6686 37.2992 82.9716 38.5303 82.9716 39.9602C82.9716 41.5038 82.5881 42.8816 81.821 44.0938C81.0634 45.2964 79.9413 46.2481 78.4545 46.9489C76.9678 47.6496 75.1354 48 72.9574 48H60.5284ZM66.679 42.9716H71.6932C73.4072 42.9716 74.6572 42.6449 75.4432 41.9915C76.2292 41.3286 76.6222 40.4479 76.6222 39.3494C76.6222 38.5445 76.428 37.8343 76.0398 37.2188C75.6515 36.6032 75.0975 36.1203 74.3778 35.7699C73.6676 35.4195 72.8201 35.2443 71.8352 35.2443H66.679V42.9716ZM66.679 31.0824H71.2386C72.0814 31.0824 72.8295 30.9356 73.483 30.642C74.1458 30.339 74.6667 29.9129 75.0455 29.3636C75.4337 28.8144 75.6278 28.1562 75.6278 27.3892C75.6278 26.3381 75.2538 25.4905 74.5057 24.8466C73.767 24.2027 72.7159 23.8807 71.3523 23.8807H66.679V31.0824ZM86.8601 48V26.1818H92.9112V48H86.8601ZM89.8999 23.3693C89.0002 23.3693 88.2285 23.071 87.5845 22.4744C86.95 21.8684 86.6328 21.1439 86.6328 20.3011C86.6328 19.4678 86.95 18.7528 87.5845 18.1562C88.2285 17.5502 89.0002 17.2472 89.8999 17.2472C90.7995 17.2472 91.5665 17.5502 92.201 18.1562C92.8449 18.7528 93.1669 19.4678 93.1669 20.3011C93.1669 21.1439 92.8449 21.8684 92.201 22.4744C91.5665 23.071 90.7995 23.3693 89.8999 23.3693ZM109.364 26.1818V30.7273H96.2244V26.1818H109.364ZM99.2074 20.9545H105.259V41.2955C105.259 41.8542 105.344 42.2898 105.514 42.6023C105.685 42.9053 105.921 43.1184 106.224 43.2415C106.537 43.3646 106.897 43.4261 107.304 43.4261C107.588 43.4261 107.872 43.4025 108.156 43.3551C108.44 43.2983 108.658 43.2557 108.81 43.2273L109.761 47.7301C109.458 47.8248 109.032 47.9337 108.483 48.0568C107.934 48.1894 107.266 48.2699 106.48 48.2983C105.022 48.3551 103.743 48.161 102.645 47.7159C101.556 47.2708 100.708 46.5795 100.102 45.642C99.4962 44.7045 99.1979 43.5208 99.2074 42.0909V20.9545Z" fill="#E04B0B"/>
<path d="M139.087 29.0938H132.865C132.751 28.2888 132.519 27.5739 132.169 26.9489C131.819 26.3144 131.369 25.7746 130.82 25.3295C130.27 24.8845 129.636 24.5436 128.916 24.3068C128.206 24.0701 127.434 23.9517 126.601 23.9517C125.095 23.9517 123.784 24.3258 122.666 25.0739C121.549 25.8125 120.682 26.892 120.067 28.3125C119.451 29.7235 119.143 31.4375 119.143 33.4545C119.143 35.5284 119.451 37.2708 120.067 38.6818C120.692 40.0928 121.563 41.1581 122.68 41.8778C123.798 42.5975 125.09 42.9574 126.558 42.9574C127.382 42.9574 128.144 42.8485 128.845 42.6307C129.555 42.4129 130.185 42.0956 130.734 41.679C131.284 41.2528 131.738 40.7367 132.098 40.1307C132.467 39.5246 132.723 38.8333 132.865 38.0568L139.087 38.0852C138.926 39.4205 138.523 40.7083 137.879 41.9489C137.245 43.1799 136.388 44.2831 135.308 45.2585C134.238 46.2244 132.96 46.9915 131.473 47.5597C129.996 48.1184 128.324 48.3977 126.459 48.3977C123.864 48.3977 121.544 47.8106 119.499 46.6364C117.463 45.4621 115.853 43.7623 114.669 41.5369C113.495 39.3116 112.908 36.6174 112.908 33.4545C112.908 30.2822 113.504 27.5833 114.697 25.358C115.891 23.1326 117.51 21.4375 119.555 20.2727C121.601 19.0985 123.902 18.5114 126.459 18.5114C128.144 18.5114 129.707 18.7481 131.146 19.2216C132.595 19.6951 133.878 20.3864 134.996 21.2955C136.113 22.1951 137.022 23.2983 137.723 24.6051C138.433 25.9119 138.888 27.4081 139.087 29.0938ZM149.435 35.3864V48H143.384V18.9091H149.264V30.0312H149.52C150.012 28.7434 150.808 27.7348 151.906 27.0057C153.005 26.267 154.383 25.8977 156.04 25.8977C157.555 25.8977 158.876 26.2292 160.003 26.892C161.139 27.5455 162.02 28.4877 162.645 29.7188C163.279 30.9403 163.592 32.4034 163.582 34.108V48H157.531V35.1875C157.541 33.8428 157.2 32.7964 156.509 32.0483C155.827 31.3002 154.87 30.9261 153.639 30.9261C152.815 30.9261 152.086 31.1013 151.452 31.4517C150.827 31.8021 150.334 32.3134 149.974 32.9858C149.624 33.6487 149.444 34.4489 149.435 35.3864ZM168.344 48V26.1818H174.396V48H168.344ZM171.384 23.3693C170.485 23.3693 169.713 23.071 169.069 22.4744C168.434 21.8684 168.117 21.1439 168.117 20.3011C168.117 19.4678 168.434 18.7528 169.069 18.1562C169.713 17.5502 170.485 17.2472 171.384 17.2472C172.284 17.2472 173.051 17.5502 173.685 18.1562C174.329 18.7528 174.651 19.4678 174.651 20.3011C174.651 21.1439 174.329 21.8684 173.685 22.4744C173.051 23.071 172.284 23.3693 171.384 23.3693ZM185.294 18.9091V48H179.243V18.9091H185.294ZM196.192 18.9091V48H190.141V18.9091H196.192Z" fill="white"/>
<path d="M53.0066 20.8536C52.4326 17.8752 49.2756 16.7736 47.1026 16.3656C47.2256 16.8144 47.2666 17.2224 47.2666 17.712C47.2666 18.6504 47.0206 19.548 46.6106 20.364C47.8406 20.6496 48.9476 21.1392 49.0296 21.6288C49.0706 21.9144 49.0296 22.0776 48.9066 22.2C48.2096 23.0568 45.8726 23.628 44.1506 23.628H38.7386C37.0166 23.628 34.6796 23.0568 33.9826 22.2C33.8596 22.0368 33.7776 21.9144 33.8596 21.6288C33.9416 21.0984 35.0486 20.6496 36.2786 20.364C35.8686 19.5888 35.6226 18.6912 35.6226 17.712C35.6226 17.2632 35.6636 16.8144 35.7866 16.3656C33.6136 16.7736 30.4566 17.8752 29.8826 20.8536C29.5956 22.2816 29.9646 23.628 30.8666 24.7296C32.2606 26.4024 34.5976 27.096 36.4016 27.3816C35.8686 28.8504 34.8436 31.8696 34.0646 34.4808C31.9326 34.44 28.2016 34.3584 26.8076 34.3992C26.0286 34.3992 25.2906 34.7256 24.7166 35.2968C23.4456 36.6024 22.7896 40.0296 22.7896 45.4968L19.1406 47.3736C17.9926 47.9448 17.5416 49.3728 18.1566 50.5152C18.5666 51.3312 19.3866 51.78 20.2476 51.78C20.6166 51.78 20.9856 51.6984 21.3136 51.4944L38.0006 42.8448C40.1326 41.9064 41.3216 40.6416 41.8136 39.3768C42.7566 37.1328 44.9706 30.1152 45.7906 27.4632C47.5946 27.2592 50.3826 26.6064 51.9816 24.7296C52.9246 23.628 53.2526 22.2816 53.0066 20.8536ZM27.5866 43.0488C27.6686 41.376 27.8326 39.948 28.0376 39.0504C30.1696 39.0912 33.7776 39.132 35.0486 39.1728L27.5866 43.0488Z" fill="white"/>
<path d="M41.4445 22.404C44.0485 22.404 46.1595 20.3033 46.1595 17.712C46.1595 15.1207 44.0485 13.02 41.4445 13.02C38.8405 13.02 36.7295 15.1207 36.7295 17.712C36.7295 20.3033 38.8405 22.404 41.4445 22.404Z" fill="white"/>
<path d="M38.7803 18.5807C39.5162 20.1767 41.2844 22.3825 44.1103 19.4033L38.7803 18.5807Z" fill="#FB8C00" stroke="#FB8C00" stroke-linecap="round"/>
</svg>
