<?xml version="1.0" encoding="UTF-8"?>
<!DOCTYPE svg PUBLIC "-//W3C//DTD SVG 1.1//EN" "http://www.w3.org/Graphics/SVG/1.1/DTD/svg11.dtd">
<svg xmlns="http://www.w3.org/2000/svg" version="1.1" width="166px" height="152px" style="shape-rendering:geometricPrecision; text-rendering:geometricPrecision; image-rendering:optimizeQuality; fill-rule:evenodd; clip-rule:evenodd" xmlns:xlink="http://www.w3.org/1999/xlink">
<g><path style="opacity:1" fill="#fcfcfc" d="M -0.5,-0.5 C 54.8333,-0.5 110.167,-0.5 165.5,-0.5C 165.5,50.1667 165.5,100.833 165.5,151.5C 110.167,151.5 54.8333,151.5 -0.5,151.5C -0.5,100.833 -0.5,50.1667 -0.5,-0.5 Z"/></g>
<g><path style="opacity:1" fill="#070707" d="M 47.5,18.5 C 51.6845,20.0091 55.0178,22.6757 57.5,26.5C 48.8333,35.5 40.1667,44.5 31.5,53.5C 35.1973,58.0314 39.3639,62.0314 44,65.5C 54.3116,55.1884 64.6449,44.8551 75,34.5C 75.4994,29.1771 75.666,23.8437 75.5,18.5C 79.5,18.5 83.5,18.5 87.5,18.5C 87.3338,24.5092 87.5005,30.5092 88,36.5C 98,46.5 108,56.5 118,66.5C 122.214,62.6216 126.048,58.4549 129.5,54C 120.995,44.9947 112.662,35.828 104.5,26.5C 106.833,23.5 109.5,20.8333 112.5,18.5C 124.5,29.8333 136.167,41.5 147.5,53.5C 141.006,61.1603 134.339,68.6603 127.5,76C 133.622,83.124 140.122,89.9573 147,96.5C 147.667,97.1667 147.667,97.8333 147,98.5C 136.03,110.471 124.696,122.138 113,133.5C 109.984,130.651 107.15,127.651 104.5,124.5C 113.201,115.801 121.534,106.801 129.5,97.5C 125.769,92.5789 121.436,88.7456 116.5,86C 107.364,96.1371 97.8637,105.97 88,115.5C 87.5006,121.157 87.3339,126.824 87.5,132.5C 83.5,132.5 79.5,132.5 75.5,132.5C 75.666,127.156 75.4994,121.823 75,116.5C 64.8031,106.637 54.9698,96.4706 45.5,86C 44.5,85.3333 43.5,85.3333 42.5,86C 38.8333,89.6667 35.1667,93.3333 31.5,97C 40.3641,105.53 48.8641,114.363 57,123.5C 55.7635,126.776 53.5968,129.609 50.5,132C 49.5,132.667 48.5,132.667 47.5,132C 36.5298,120.029 25.1965,108.362 13.5,97C 20.6813,89.9856 27.6813,82.819 34.5,75.5C 27.9525,67.7415 20.9525,60.4082 13.5,53.5C 24.8546,41.8126 36.188,30.146 47.5,18.5 Z"/></g>
<g><path style="opacity:1" fill="#f9f9f9" d="M 79.5,47.5 C 80.552,47.3505 81.552,47.5172 82.5,48C 90.9838,57.3178 99.6505,66.4844 108.5,75.5C 100.172,85.6617 91.005,94.995 81,103.5C 70.797,94.9643 61.6303,85.4643 53.5,75C 61.9928,65.6738 70.6594,56.5071 79.5,47.5 Z"/></g>
</svg>
