<svg width="522" height="93" viewBox="0 0 522 93" fill="none" xmlns="http://www.w3.org/2000/svg">
<path d="M480.533 69.763V35.5786H488.592V39.7379H489.047C490.411 37.2033 493.791 34.7337 498.665 34.7337C506.334 34.7337 511.013 40.1278 511.013 47.4067V69.763H502.564V49.6163C502.564 45.457 499.9 42.6624 496 42.6624C491.906 42.6624 488.982 45.9119 488.982 50.2012V69.763H480.533Z" fill="#AAA9AF"/>
<path d="M471.949 32.5367C468.895 32.5367 466.75 30.6521 466.75 27.5976C466.75 24.673 468.895 22.7234 471.949 22.7234C475.004 22.7234 477.148 24.673 477.148 27.5976C477.148 30.6521 475.004 32.5367 471.949 32.5367ZM467.725 69.7623V35.578H476.173V69.7623H467.725Z" fill="#AAA9AF"/>
<path d="M433.956 70.6078C423.883 70.6078 416.734 63.0691 416.734 52.8658C416.734 42.0775 423.948 34.7337 433.956 34.7337C444.939 34.7337 450.918 42.8574 450.918 52.4758V55.1404H424.923C425.183 60.3395 428.757 63.8489 434.216 63.8489C438.375 63.8489 441.56 61.8993 442.73 59.1047H450.593C448.904 66.0586 442.795 70.6078 433.956 70.6078ZM425.053 49.1614H442.86C442.47 44.5471 438.895 41.4926 433.956 41.4926C429.212 41.4926 425.573 44.8721 425.053 49.1614Z" fill="#AAA9AF"/>
<path d="M377.281 82.5028V35.5786H385.6V39.9329H386.055C386.965 38.5031 390.084 34.7337 396.323 34.7337C405.877 34.7337 412.441 41.8826 412.441 52.5408C412.441 63.199 405.942 70.6078 396.583 70.6078C390.539 70.6078 387.29 67.2284 386.185 65.3437H385.73V82.5028H377.281ZM394.699 62.9391C400.158 62.9391 403.862 58.7148 403.862 52.6708C403.862 46.4318 400.158 42.4025 394.634 42.4025C389.045 42.4025 385.535 46.8867 385.535 52.6708C385.535 59.0397 389.434 62.9391 394.699 62.9391Z" fill="#AAA9AF"/>
<path d="M316.554 70.6078C306.48 70.6078 299.331 63.0691 299.331 52.8658C299.331 42.0775 306.545 34.7337 316.554 34.7337C327.537 34.7337 333.516 42.8574 333.516 52.4758V55.1404H307.52C307.78 60.3395 311.354 63.8489 316.814 63.8489C320.973 63.8489 324.157 61.8993 325.327 59.1047H333.191C331.501 66.0586 325.392 70.6078 316.554 70.6078ZM307.65 49.1614H325.457C325.067 44.5471 321.493 41.4926 316.554 41.4926C311.809 41.4926 308.17 44.8721 307.65 49.1614Z" fill="#AAA9AF"/>
<path d="M260.462 69.7622V61.7656L284.118 30.9216V30.4512H261.307V22.7234H294.906V30.6528L271.25 61.4968V62.0344H295.036V69.7622H260.462Z" fill="#AAA9AF"/>
<path d="M225.673 69.763V35.5786H233.731V39.7379H234.186C235.551 37.2033 238.93 34.7337 243.805 34.7337C251.473 34.7337 256.153 40.1278 256.153 47.4067V69.763H247.704V49.6163C247.704 45.457 245.039 42.6624 241.14 42.6624C237.046 42.6624 234.121 45.9119 234.121 50.2012V69.763H225.673Z" fill="#AAA9AF"/>
<path d="M204.413 70.6078C194.34 70.6078 187.191 63.0691 187.191 52.8658C187.191 42.0775 194.405 34.7337 204.413 34.7337C215.396 34.7337 221.375 42.8574 221.375 52.4758V55.1404H195.38C195.64 60.3395 199.214 63.8489 204.673 63.8489C208.833 63.8489 212.017 61.8993 213.187 59.1047H221.05C219.361 66.0586 213.252 70.6078 204.413 70.6078ZM195.51 49.1614H213.317C212.927 44.5471 209.352 41.4926 204.413 41.4926C199.669 41.4926 196.03 44.8721 195.51 49.1614Z" fill="#AAA9AF"/>
<path d="M147.739 82.4539V35.4592H156.057V39.9329H156.512C157.422 38.5031 160.542 34.7337 166.781 34.7337C176.334 34.7337 182.898 41.8826 182.898 52.5408C182.898 63.199 176.399 70.6078 167.04 70.6078C160.997 70.6078 157.747 67.2284 156.642 65.3437H156.187V82.4539H147.739ZM165.156 62.9391C170.615 62.9391 174.319 58.7148 174.319 52.6708C174.319 46.4318 170.615 42.4025 165.091 42.4025C159.502 42.4025 155.992 46.8867 155.992 52.6708C155.992 59.0397 159.892 62.9391 165.156 62.9391Z" fill="#AAA9AF"/>
<path d="M118.541 70.6076C104.263 70.6076 93.7572 60.1687 93.7572 46.1604C93.7572 32.2868 104.331 21.7133 118.608 21.7133C132.886 21.7133 143.46 32.4215 143.46 46.1604C143.46 60.034 132.819 70.6076 118.541 70.6076ZM118.608 62.0545C127.633 62.0545 134.098 55.3197 134.098 46.1604C134.098 37.1359 127.633 30.2664 118.608 30.2664C109.517 30.2664 103.051 37.1359 103.051 46.1604C103.051 55.3197 109.517 62.0545 118.608 62.0545Z" fill="#AAA9AF"/>
<rect x="455.215" y="22.5246" width="8.19647" height="47.2383" fill="#AAA9AF"/>
<path d="M337.813 82.502V35.5779H346.132V39.9321H346.587C347.496 38.5024 350.616 34.733 356.855 34.733C366.408 34.733 372.972 41.8818 372.972 52.5401C372.972 63.1983 366.473 70.6071 357.115 70.6071C351.071 70.6071 347.821 67.2276 346.717 65.343H346.262V82.502H337.813ZM355.23 62.9384C360.689 62.9384 364.394 58.7141 364.394 52.67C364.394 46.4311 360.689 42.4017 355.165 42.4017C349.576 42.4017 346.067 46.886 346.067 52.67C346.067 59.039 349.966 62.9384 355.23 62.9384Z" fill="#AAA9AF"/>
<path d="M10.4995 82.5705C18.5557 68.6315 25.4014 57.1359 34.1023 41.3805C37.1758 36.0639 42.4865 32.7602 49.0425 32.7602H59.3439L30.5759 82.5705H10.4995Z" fill="#AAA9AF"/>
<path d="M10.5907 10.007H72.404L61.8422 28.4222H10.5907V10.007Z" fill="#AAA9AF"/>
<path d="M41.5527 71.1015C43.8772 66.9923 47.6137 64.4394 52.8471 64.4394L72.4153 64.386V82.5718H34.9211C37.2685 78.5458 39.3069 75.0717 41.5527 71.1015Z" fill="#AAA9AF"/>
</svg>
